<?xml version="1.0" encoding="utf-8"?>
<!-- Generator: Adobe Illustrator 23.0.0, SVG Export Plug-In . SVG Version: 6.00 Build 0)  -->
<svg version="1.1" id="Capa_1" xmlns="http://www.w3.org/2000/svg" xmlns:xlink="http://www.w3.org/1999/xlink" x="0px" y="0px"
	 viewBox="0 0 512 512" style="enable-background:new 0 0 512 512;" xml:space="preserve">
<style type="text/css">
	.st0{fill:#FDFDFD;}
</style>
<g>
	<path class="st0" d="M83.2,376.7c1.9-1.8,3.4-3.2,4.9-4.7c32.5-32.7,65.1-65.4,97.6-98c11.7-11.8,20.7-11.8,32.4-0.1
		c7.9,7.9,15.9,15.8,23.8,23.8c9,9.1,9,18.9-0.1,28c-33.2,33.2-66.5,66.4-99.8,99.6c-1.6,1.6-3.2,3.3-5.1,5.3c6.6,6.2,13,12,19.3,18
		c7.1,6.8,14.5,13.2,20.9,20.5c7.4,8.5,7.6,18.4,2.7,28.4c-4.9,9.8-13.2,14.2-23.8,14.2c-42.2,0.1-84.4,0.1-126.6,0
		c-16,0-27.4-11.7-27.5-27.7c0-41.8,0-83.7,0-125.5c0-12.4,6.6-22.2,17.4-26.2c10.6-3.9,22.3-0.4,30.4,8.5
		C60.6,353,71.8,364.6,83.2,376.7z"/>
	<path class="st0" d="M377,83.3c-7.3-6.9-14.3-13.7-21.4-20.4c-5.7-5.4-11.5-10.6-17.1-16.2c-7.6-7.6-9.7-19-5.1-29.1
		C338,7.5,346.1,2,357.3,2c42.7-0.1,85.5-0.1,128.2,0c14.8,0,26.5,11.7,26.5,26.4c0.1,42.4,0,84.8,0,127.1
		c0,11.9-5.9,20.9-16.3,25.2c-10.8,4.5-21.1,2.4-29.7-6.5c-11.8-12.1-23.3-24.5-35.4-37.2c-1.7,1.6-3.4,3.1-5,4.7
		c-32.7,32.8-65.6,65.3-98,98.4c-10.3,10.5-22,10.6-31.8,0.1c-7.1-7.5-14.6-14.6-21.9-21.9c-11.6-11.6-11.6-20.5-0.1-32
		c32.8-32.7,65.6-65.3,98.4-98C373.8,86.7,375.2,85.2,377,83.3z"/>
</g>
</svg>
